<?xml version="1.0" encoding="utf-8"?>
<!-- Generator: Adobe Illustrator 16.2.0, SVG Export Plug-In . SVG Version: 6.00 Build 0)  -->
<!DOCTYPE svg PUBLIC "-//W3C//DTD SVG 1.1//EN" "http://www.w3.org/Graphics/SVG/1.1/DTD/svg11.dtd">
<svg version="1.1" id="Layer_1" xmlns="http://www.w3.org/2000/svg" xmlns:xlink="http://www.w3.org/1999/xlink" x="0px" y="0px"
	 width="512px" height="512px" viewBox="0 0 512 512" enable-background="new 0 0 512 512" xml:space="preserve">
<title>ionicons-v5-e</title>
<path fill="none" stroke="#999999" stroke-width="44" stroke-miterlimit="10" d="M255.997,26.822
	C129.426,26.822,26.82,129.429,26.82,256s102.607,229.178,229.177,229.178c126.573,0,229.184-102.606,229.184-229.178
	C485.181,129.428,382.57,26.822,255.997,26.822z"/>
<path fill="none" stroke="#999999" stroke-width="44" stroke-linecap="round" stroke-miterlimit="10" d="M183.078,186.061
	c0,0,1.094-22.787,25.483-42.41c14.467-11.656,31.812-15.028,47.436-15.262c14.233-0.183,26.942,2.175,34.549,5.795
	c13.021,6.197,38.375,21.328,38.375,53.504c0,33.856-22.137,49.234-47.36,66.149c-25.22,16.913-32.072,35.273-32.072,54.247"/>
<circle fill="#999999" cx="248.185" cy="375.796" r="23.876"/>
</svg>
